<svg width="55" height="55" viewBox="0 0 55 55" fill="none" xmlns="http://www.w3.org/2000/svg">
<mask id="mask0_47_55" style="mask-type:alpha" maskUnits="userSpaceOnUse" x="0" y="0" width="55" height="55">
<rect width="55" height="55" fill="#D9D9D9"/>
</mask>
<g mask="url(#mask0_47_55)">
<path d="M28.5885 38.5573L47.7812 19.3646L44.8021 16.3854L25.6094 35.5781L28.5885 38.5573ZM13.6354 43.5416C9.81597 43.3507 6.97048 42.5486 5.09896 41.1354C3.22743 39.7222 2.29166 37.6788 2.29166 35.0052C2.29166 32.5226 3.31337 30.5078 5.35677 28.9609C7.40017 27.414 10.2361 26.4878 13.8646 26.1823C15.3542 26.0677 16.4714 25.829 17.2161 25.4661C17.9609 25.1033 18.3333 24.5972 18.3333 23.9479C18.3333 22.9548 17.77 22.21 16.6432 21.7135C15.5165 21.217 13.6545 20.8541 11.0573 20.625L11.4583 16.0416C15.3924 16.3472 18.2856 17.1397 20.138 18.4193C21.9904 19.6988 22.9167 21.5416 22.9167 23.9479C22.9167 25.9722 22.1814 27.5573 20.7109 28.7031C19.2404 29.8489 17.0729 30.5364 14.2083 30.7656C11.7639 30.9566 9.93055 31.4054 8.70833 32.112C7.48611 32.8186 6.875 33.783 6.875 35.0052C6.875 36.342 7.40972 37.3064 8.47916 37.8984C9.54861 38.4904 11.3437 38.8437 13.8646 38.9583L13.6354 43.5416ZM29.6771 43.9427L20.224 34.4896L42.1094 12.6041C42.8733 11.8403 43.7804 11.4583 44.8307 11.4583C45.8811 11.4583 46.7882 11.8403 47.5521 12.6041L51.5625 16.6146C52.3264 17.3785 52.7083 18.2856 52.7083 19.3359C52.7083 20.3863 52.3264 21.2934 51.5625 22.0573L29.6771 43.9427ZM20.5677 45.8333C19.9184 45.9861 19.3455 45.8142 18.849 45.3177C18.3524 44.8212 18.1806 44.2482 18.3333 43.5989L20.224 34.4896L29.6771 43.9427L20.5677 45.8333Z" fill="#73EA00"/>
</g>
</svg>
