<svg width="55" height="55" viewBox="0 0 55 55" fill="none" xmlns="http://www.w3.org/2000/svg">
<mask id="mask0_47_67" style="mask-type:alpha" maskUnits="userSpaceOnUse" x="0" y="0" width="55" height="55">
<rect width="55" height="55" fill="#D9D9D9"/>
</mask>
<g mask="url(#mask0_47_67)">
<path d="M16.0417 41.25C15.3924 41.25 14.8481 41.0304 14.4089 40.5912C13.9696 40.152 13.75 39.6077 13.75 38.9584V34.375H43.5417V13.75H48.125C48.7743 13.75 49.3186 13.9697 49.7578 14.4089C50.197 14.8481 50.4167 15.3924 50.4167 16.0417V50.4167L41.25 41.25H16.0417ZM4.58334 38.9584V6.87504C4.58334 6.22574 4.80295 5.68146 5.24219 5.24223C5.68143 4.80299 6.2257 4.58337 6.875 4.58337H36.6667C37.316 4.58337 37.8602 4.80299 38.2995 5.24223C38.7387 5.68146 38.9583 6.22574 38.9583 6.87504V27.5C38.9583 28.1493 38.7387 28.6936 38.2995 29.1329C37.8602 29.5721 37.316 29.7917 36.6667 29.7917H13.75L4.58334 38.9584ZM34.375 25.2084V9.16671H9.16667V25.2084H34.375Z" fill="#73EA00"/>
</g>
</svg>
