<svg width="55" height="55" viewBox="0 0 55 55" fill="none" xmlns="http://www.w3.org/2000/svg">
<mask id="mask0_47_79" style="mask-type:alpha" maskUnits="userSpaceOnUse" x="0" y="0" width="55" height="55">
<rect width="55" height="55" fill="#D9D9D9"/>
</mask>
<g mask="url(#mask0_47_79)">
<path d="M16.0417 38.9583H20.625V22.9167H16.0417V38.9583ZM25.2083 38.9583H29.7917V16.0417H25.2083V38.9583ZM34.375 38.9583H38.9583V29.7917H34.375V38.9583ZM11.4583 48.125C10.1979 48.125 9.11892 47.6762 8.22135 46.7786C7.32378 45.8811 6.875 44.8021 6.875 43.5417V11.4583C6.875 10.1979 7.32378 9.11892 8.22135 8.22135C9.11892 7.32378 10.1979 6.875 11.4583 6.875H43.5417C44.8021 6.875 45.8811 7.32378 46.7786 8.22135C47.6762 9.11892 48.125 10.1979 48.125 11.4583V43.5417C48.125 44.8021 47.6762 45.8811 46.7786 46.7786C45.8811 47.6762 44.8021 48.125 43.5417 48.125H11.4583ZM11.4583 43.5417H43.5417V11.4583H11.4583V43.5417Z" fill="#73EA00"/>
</g>
</svg>
