<svg width="55" height="55" viewBox="0 0 55 55" fill="none" xmlns="http://www.w3.org/2000/svg">
<mask id="mask0_47_31" style="mask-type:alpha" maskUnits="userSpaceOnUse" x="0" y="0" width="55" height="55">
<rect width="55" height="55" fill="#D9D9D9"/>
</mask>
<g mask="url(#mask0_47_31)">
<path d="M27.5 36.6667C30.3646 36.6667 32.7995 35.6641 34.8047 33.6589C36.8099 31.6537 37.8125 29.2188 37.8125 26.3542C37.8125 23.4896 36.8099 21.0547 34.8047 19.0495C32.7995 17.0443 30.3646 16.0417 27.5 16.0417C24.6354 16.0417 22.2005 17.0443 20.1953 19.0495C18.1901 21.0547 17.1875 23.4896 17.1875 26.3542C17.1875 29.2188 18.1901 31.6537 20.1953 33.6589C22.2005 35.6641 24.6354 36.6667 27.5 36.6667ZM27.5 32.5417C25.7812 32.5417 24.3203 31.9401 23.1172 30.737C21.9141 29.5339 21.3125 28.0729 21.3125 26.3542C21.3125 24.6354 21.9141 23.1745 23.1172 21.9714C24.3203 20.7683 25.7812 20.1667 27.5 20.1667C29.2187 20.1667 30.6797 20.7683 31.8828 21.9714C33.0859 23.1745 33.6875 24.6354 33.6875 26.3542C33.6875 28.0729 33.0859 29.5339 31.8828 30.737C30.6797 31.9401 29.2187 32.5417 27.5 32.5417ZM27.5 43.5417C21.9236 43.5417 16.8437 41.9853 12.2604 38.8724C7.67707 35.7596 4.35416 31.5868 2.29166 26.3542C4.35416 21.1215 7.67707 16.9488 12.2604 13.836C16.8437 10.7231 21.9236 9.16669 27.5 9.16669C33.0764 9.16669 38.1562 10.7231 42.7396 13.836C47.3229 16.9488 50.6458 21.1215 52.7083 26.3542C50.6458 31.5868 47.3229 35.7596 42.7396 38.8724C38.1562 41.9853 33.0764 43.5417 27.5 43.5417ZM27.5 38.9584C31.816 38.9584 35.7786 37.8221 39.388 35.5495C42.9974 33.2769 45.7569 30.2118 47.6667 26.3542C45.7569 22.4965 42.9974 19.4314 39.388 17.1589C35.7786 14.8863 31.816 13.75 27.5 13.75C23.184 13.75 19.2213 14.8863 15.612 17.1589C12.0026 19.4314 9.24305 22.4965 7.33332 26.3542C9.24305 30.2118 12.0026 33.2769 15.612 35.5495C19.2213 37.8221 23.184 38.9584 27.5 38.9584Z" fill="#73EA00"/>
</g>
</svg>
