<svg width="55" height="55" viewBox="0 0 55 55" fill="none" xmlns="http://www.w3.org/2000/svg">
<mask id="mask0_47_43" style="mask-type:alpha" maskUnits="userSpaceOnUse" x="0" y="0" width="55" height="55">
<rect width="55" height="55" fill="#D9D9D9"/>
</mask>
<g mask="url(#mask0_47_43)">
<path d="M9.16668 45.8333C7.90626 45.8333 6.82727 45.3845 5.9297 44.4869C5.03213 43.5894 4.58334 42.5104 4.58334 41.25V13.75C4.58334 12.4895 5.03213 11.4105 5.9297 10.513C6.82727 9.61541 7.90626 9.16663 9.16668 9.16663H45.8333C47.0938 9.16663 48.1728 9.61541 49.0703 10.513C49.9679 11.4105 50.4167 12.4895 50.4167 13.75V41.25C50.4167 42.5104 49.9679 43.5894 49.0703 44.4869C48.1728 45.3845 47.0938 45.8333 45.8333 45.8333H9.16668ZM9.16668 41.25H45.8333V18.3333H9.16668V41.25ZM17.1875 38.9583L13.9792 35.75L19.8802 29.7916L13.9219 23.8333L17.1875 20.625L26.3542 29.7916L17.1875 38.9583ZM27.5 38.9583V34.375H41.25V38.9583H27.5Z" fill="#73EA00"/>
</g>
</svg>
