<svg width="404" height="598" viewBox="0 0 404 598" fill="none" xmlns="http://www.w3.org/2000/svg">
<rect width="404" height="598" fill="#73EA00"/>
<path d="M96.4322 524.453C92.5232 528.344 86.202 528.335 82.3036 524.434L62.0625 504.176C58.1611 500.272 58.1611 493.944 62.0625 490.04L195.176 356.818C199.082 352.909 205.418 352.909 209.324 356.818L342.438 490.04C346.339 493.944 346.339 500.272 342.438 504.176L322.196 524.434C318.298 528.335 311.977 528.344 308.068 524.453L209.305 426.147C205.403 422.264 199.097 422.264 195.195 426.147L96.4322 524.453ZM96.4322 377.084C92.5232 380.975 86.202 380.966 82.3036 377.064L62.0625 356.807C58.1611 352.902 58.1611 346.575 62.0625 342.67L195.176 209.449C199.082 205.54 205.418 205.54 209.324 209.449L342.438 342.67C346.339 346.575 346.339 352.902 342.438 356.807L322.196 377.064C318.298 380.966 311.977 380.975 308.068 377.084L209.305 278.778C205.403 274.894 199.097 274.894 195.195 278.778L96.4322 377.084ZM96.4322 229.714C92.5232 233.605 86.202 233.597 82.3036 229.695L62.0625 209.438C58.1611 205.533 58.1611 199.206 62.0625 195.301L195.176 62.0797C199.082 58.1706 205.418 58.1706 209.324 62.0797L342.438 195.301C346.339 199.206 346.339 205.533 342.438 209.438L322.196 229.695C318.298 233.597 311.977 233.605 308.068 229.714L209.305 131.408C205.403 127.525 199.097 127.525 195.195 131.408L96.4322 229.714Z" fill="white"/>
</svg>
